# xmcd CD database file
#
# Track frame offsets:
#	150
#	30850
#	41472
#	54416
#	83461
#	94911
#	106525
#	117581
#	131456
#	145966
#	159873
#	172385
#
# Disc length: 2486 seconds
#
# Revision: 0
# Processed by: cddbd v1.4PL0 Copyright (c) Steve Scherf et al.
# Submitted via: CDex 1.50
#
DISCID=8e09b40c
DTITLE=Ray Charles - the best of Ray Charles
DYEAR=1998
DGENRE=Jazz
TTITLE0=Georgia On My Mind
TTITLE1=Sittin' On Top Of The World
TTITLE2=Baby Won't You Please Come Home
TTITLE3=What'd I Say
TTITLE4=You Be My Baby
TTITLE5=Tell Me Baby
TTITLE6=A Sentimental Blues
TTITLE7=I'm Goin' Down To The River
TTITLE8=Blues Is My Middle Name
TTITLE9=This Love Of Mine
TTITLE10=Leave My Woman Alone
TTITLE11=Kiss Me Baby
EXTD=YEAR: 1998
EXTT0=
EXTT1=
EXTT2=
EXTT3=
EXTT4=
EXTT5=
EXTT6=
EXTT7=
EXTT8=
EXTT9=
EXTT10=
EXTT11=
PLAYORDER=
